<svg xmlns="http://www.w3.org/2000/svg" xmlns:xlink="http://www.w3.org/1999/xlink" width="106.541" height="35.066" viewBox="0 0 106.541 35.066">
  <defs>
    <clipPath id="clip-path">
      <path id="Path_1397" data-name="Path 1397" d="M1227.323,507l-1.423-.156a5.055,5.055,0,0,0,.59.03,5.358,5.358,0,0,0,3.84-1.7,5.991,5.991,0,0,0,1.621-4.072,5.859,5.859,0,0,0-1.541-4.064,5.218,5.218,0,0,0-3.235-1.636l1.423.156a5.208,5.208,0,0,1,3.235,1.636,5.854,5.854,0,0,1,1.541,4.064,6.009,6.009,0,0,1-1.621,4.072,5.344,5.344,0,0,1-3.84,1.7C1227.711,507.026,1227.517,507.015,1227.323,507Z" transform="translate(-1225.9 -495.4)"/>
    </clipPath>
    <clipPath id="clip-path-2">
      <path id="Path_1399" data-name="Path 1399" d="M1085.075,822.308l-1.423-.156a8.222,8.222,0,0,1-2.42-.643,8.594,8.594,0,0,1-2.832-2.01l1.423.156a8.592,8.592,0,0,0,2.831,2.009A8.224,8.224,0,0,0,1085.075,822.308Z" transform="translate(-1078.4 -819.5)"/>
    </clipPath>
    <clipPath id="clip-path-3">
      <path id="Path_1404" data-name="Path 1404" d="M1088.72,400.853l1.423.156a9.617,9.617,0,0,0-1-.053,8.352,8.352,0,0,0-3.254.723,9.081,9.081,0,0,0-2.866,2.028l-1.423-.156a8.919,8.919,0,0,1,2.866-2.028,8.337,8.337,0,0,1,3.254-.723A9.619,9.619,0,0,1,1088.72,400.853Z" transform="translate(-1081.6 -400.8)"/>
    </clipPath>
    <clipPath id="clip-path-4">
      <path id="Path_1413" data-name="Path 1413" d="M929.823,918.6l-1.423-.156a1.534,1.534,0,0,0,.99-.537,1.718,1.718,0,0,0,.4-1.1l1.423.156a1.719,1.719,0,0,1-.4,1.1A1.5,1.5,0,0,1,929.823,918.6Z" transform="translate(-928.4 -916.8)"/>
    </clipPath>
    <clipPath id="clip-path-5">
      <path id="Path_1420" data-name="Path 1420" d="M937.178,335.485l-1.423-.156a1.694,1.694,0,0,0-.373-1.1,1.5,1.5,0,0,0-.982-.529l1.423.156a1.483,1.483,0,0,1,.982.529A1.7,1.7,0,0,1,937.178,335.485Z" transform="translate(-934.4 -333.7)"/>
    </clipPath>
    <clipPath id="clip-path-6">
      <path id="Path_1423" data-name="Path 1423" d="M378.823,1012.86l-1.423-.156a1.053,1.053,0,0,0,.19.008,1.655,1.655,0,0,0,.19-.011l1.423.156a1.653,1.653,0,0,1-.19.011C378.949,1012.867,378.884,1012.864,378.823,1012.86Z" transform="translate(-377.4 -1012.7)"/>
    </clipPath>
    <clipPath id="clip-path-7">
      <path id="Path_1426" data-name="Path 1426" d="M394.1,282.9l1.423.156h.008l-1.423-.156Z" transform="translate(-394.1 -282.9)"/>
    </clipPath>
    <clipPath id="clip-path-8">
      <path id="Path_1428" data-name="Path 1428" d="M388.9,189.067l1.423.156a4.576,4.576,0,0,0-.6-.027l-1.423-.156A4,4,0,0,1,388.9,189.067Z" transform="translate(-388.3 -189.038)"/>
    </clipPath>
    <clipPath id="clip-path-9">
      <path id="Path_1430" data-name="Path 1430" d="M260.028,975.424l-1.423-.156a4.56,4.56,0,0,1-.951-.209,4.732,4.732,0,0,1-1.758-1.084,5.052,5.052,0,0,1-1.2-1.747,5.4,5.4,0,0,1-.4-2.128l1.423.156a5.4,5.4,0,0,0,.4,2.127,5.088,5.088,0,0,0,1.2,1.747,4.732,4.732,0,0,0,1.758,1.085A4.575,4.575,0,0,0,260.028,975.424Z" transform="translate(-254.292 -970.1)"/>
    </clipPath>
    <clipPath id="clip-path-10">
      <path id="Path_1436" data-name="Path 1436" d="M261.923,194.385l-1.423-.156a5.531,5.531,0,0,1,.441-2.131,5.258,5.258,0,0,1,1.229-1.754,4.864,4.864,0,0,1,1.777-1.1A4.569,4.569,0,0,1,265.36,189l1.423.156a4.572,4.572,0,0,0-1.412.247,4.865,4.865,0,0,0-1.777,1.1,5.2,5.2,0,0,0-1.229,1.754A5.516,5.516,0,0,0,261.923,194.385Z" transform="translate(-260.5 -189)"/>
    </clipPath>
    <clipPath id="clip-path-11">
      <path id="Path_1441" data-name="Path 1441" d="M495.877,698.093l-1.423-.156a8.461,8.461,0,0,1-4.495-2.542,9.325,9.325,0,0,1-2.36-4.8l1.423.156a9.384,9.384,0,0,0,2.36,4.8A8.459,8.459,0,0,0,495.877,698.093Z" transform="translate(-487.6 -690.6)"/>
    </clipPath>
    <clipPath id="clip-path-12">
      <path id="Path_1444" data-name="Path 1444" d="M560.223,409.14l-1.423-.156a8.724,8.724,0,0,1,4.544-2.584l1.423.156A8.709,8.709,0,0,0,560.223,409.14Z" transform="translate(-558.8 -406.4)"/>
    </clipPath>
    <clipPath id="clip-path-13">
      <path id="Path_1448" data-name="Path 1448" d="M495.823,479.263l-1.423-.156a9.653,9.653,0,0,1,2.451-4.807l1.423.156A9.606,9.606,0,0,0,495.823,479.263Z" transform="translate(-494.4 -474.3)"/>
    </clipPath>
    <clipPath id="clip-path-14">
      <path id="Path_1451" data-name="Path 1451" d="M772.154,507.857l-1.423-.156a5.356,5.356,0,0,0-1.743-1.248c-.126-.057-.255-.107-.388-.152l1.423.156c.133.046.263.1.388.152A5.317,5.317,0,0,1,772.154,507.857Z" transform="translate(-768.6 -506.3)"/>
    </clipPath>
    <clipPath id="clip-path-15">
      <path id="Path_1460" data-name="Path 1460" d="M753.523,755.672l-1.423-.156c.133-.046.263-.1.388-.156a5.524,5.524,0,0,0,1.766-1.26l1.423.156a5.526,5.526,0,0,1-1.766,1.26C753.786,755.573,753.656,755.626,753.523,755.672Z" transform="translate(-752.1 -754.1)"/>
    </clipPath>
  </defs>
  <g id="chickchackmall_1_" data-name="chickchackmall (1)" transform="translate(-136.241 -189.002)">
    <g id="Group_522" data-name="Group 522" transform="translate(136.241 189.002)">
      <g id="Group_521" data-name="Group 521" transform="translate(0 0)">
        <g id="Group_488" data-name="Group 488" transform="translate(36.977 11.661)">
          <g id="Group_487" data-name="Group 487" clip-path="url(#clip-path)">
            <path id="Path_1393" data-name="Path 1393" d="M1227.323,794.136l-1.423-.156a4.982,4.982,0,0,0,1.595-.08l1.423.156a5.741,5.741,0,0,1-1,.11c-.2,0-.4-.011-.59-.03" transform="translate(-1225.9 -782.54)" fill="#065572"/>
            <path id="Path_1394" data-name="Path 1394" d="M1269.223,777.992l-1.423-.156a5.35,5.35,0,0,0,1.644-.635l1.423.156a5.28,5.28,0,0,1-1.644.636" transform="translate(-1266.205 -766.475)" fill="#06526e"/>
            <path id="Path_1395" data-name="Path 1395" d="M1312.423,751.672l-1.423-.156a5.523,5.523,0,0,0,1.191-.955c.019-.019.038-.042.057-.061l1.423.156c-.019.023-.038.042-.057.061a5.434,5.434,0,0,1-1.191.955" transform="translate(-1307.761 -740.792)" fill="#064f6a"/>
            <path id="Path_1396" data-name="Path 1396" d="M1264.035,505.264l-1.423-.156a6,6,0,0,0,1.564-4.007,5.859,5.859,0,0,0-1.541-4.064,5.217,5.217,0,0,0-3.235-1.636l1.423.156a5.209,5.209,0,0,1,3.235,1.636,5.852,5.852,0,0,1,1.541,4.064,5.994,5.994,0,0,1-1.564,4.007" transform="translate(-1258.125 -495.4)" fill="#064c66"/>
          </g>
        </g>
        <g id="Group_490" data-name="Group 490" transform="translate(31.363 23.995)">
          <g id="Group_489" data-name="Group 489" clip-path="url(#clip-path-2)">
            <path id="Path_1398" data-name="Path 1398" d="M1085.075,822.308l-1.423-.156a8.222,8.222,0,0,1-2.42-.643,8.594,8.594,0,0,1-2.832-2.01l1.423.156a8.592,8.592,0,0,0,2.831,2.009,8.224,8.224,0,0,0,2.421.643" transform="translate(-1078.4 -819.5)" fill="#064c66"/>
          </g>
        </g>
        <g id="Group_491" data-name="Group 491" transform="translate(30.442 23.017)">
          <path id="Path_1400" data-name="Path 1400" d="M1056.544,794.93l-1.423-.152-.921-.978,1.423.156Z" transform="translate(-1054.2 -793.8)" fill="#064a62"/>
        </g>
        <g id="Group_493" data-name="Group 493" transform="translate(31.485 8.06)">
          <g id="Group_492" data-name="Group 492" clip-path="url(#clip-path-3)">
            <path id="Path_1401" data-name="Path 1401" d="M1083.123,433.913l-1.423-.156a9.216,9.216,0,0,1,1.948-1.557l1.423.156a9.127,9.127,0,0,0-1.949,1.557" transform="translate(-1081.696 -431.005)" fill="#064f6a"/>
            <path id="Path_1402" data-name="Path 1402" d="M1134.223,406.384l-1.424-.156a8.369,8.369,0,0,1,.917-.472,8.509,8.509,0,0,1,1.732-.556l1.423.156a8.281,8.281,0,0,0-1.732.556,9.035,9.035,0,0,0-.917.472" transform="translate(-1130.851 -405.033)" fill="#06526e"/>
            <path id="Path_1403" data-name="Path 1403" d="M1203.823,401.123l-1.423-.156a8.073,8.073,0,0,1,1.522-.167,8.7,8.7,0,0,1,1,.053l1.423.156a9.621,9.621,0,0,0-1-.053,8.747,8.747,0,0,0-1.522.167" transform="translate(-1197.803 -400.8)" fill="#065572"/>
          </g>
        </g>
        <g id="Group_494" data-name="Group 494" transform="translate(30.549 10.816)">
          <path id="Path_1405" data-name="Path 1405" d="M1058.423,474.345l-1.423-.156.94-.99,1.423.152Z" transform="translate(-1057 -473.2)" fill="#06506b"/>
        </g>
        <g id="Group_495" data-name="Group 495" transform="translate(27.078 19.204)">
          <path id="Path_1406" data-name="Path 1406" d="M967.223,698.578l-1.423-.156,4.567-4.822,1.423.152Z" transform="translate(-965.8 -693.6)" fill="#06506b"/>
        </g>
        <g id="Group_496" data-name="Group 496" transform="translate(27.044 24.025)">
          <path id="Path_1407" data-name="Path 1407" d="M966.323,824.132l-1.423-.156.034-3.676,1.423.156Z" transform="translate(-964.9 -820.3)" fill="#064a62"/>
        </g>
        <g id="Group_497" data-name="Group 497" transform="translate(27.12 19.451)">
          <path id="Path_1408" data-name="Path 1408" d="M968.78,700.747l-1.42-.156-.46-.491,1.423.156Z" transform="translate(-966.9 -700.1)" fill="#064a62"/>
        </g>
        <g id="Group_499" data-name="Group 499" transform="translate(25.655 27.698)">
          <g id="Group_498" data-name="Group 498" transform="translate(0 0)" clip-path="url(#clip-path-4)">
            <path id="Path_1409" data-name="Path 1409" d="M929.823,959.575l-1.423-.156a1.157,1.157,0,0,0,.122-.019l1.423.156a1.134,1.134,0,0,1-.122.019" transform="translate(-928.4 -957.779)" fill="#065572"/>
            <path id="Path_1410" data-name="Path 1410" d="M933.123,954.939l-1.423-.156a1.56,1.56,0,0,0,.476-.183l1.423.156a1.568,1.568,0,0,1-.476.183" transform="translate(-931.574 -953.161)" fill="#06526e"/>
            <path id="Path_1411" data-name="Path 1411" d="M945.623,947.541l-1.423-.156a1.58,1.58,0,0,0,.35-.285l1.423.156a1.575,1.575,0,0,1-.35.285" transform="translate(-943.599 -945.947)" fill="#064f6a"/>
            <path id="Path_1412" data-name="Path 1412" d="M954.823,918.205l-1.423-.156c.015-.015.027-.03.042-.046a1.719,1.719,0,0,0,.4-1.1l1.423.156a1.719,1.719,0,0,1-.4,1.1.465.465,0,0,0-.042.046" transform="translate(-952.448 -916.896)" fill="#064c66"/>
          </g>
        </g>
        <g id="Group_500" data-name="Group 500" transform="translate(27.158 11.805)">
          <path id="Path_1414" data-name="Path 1414" d="M969.323,502.937l-1.423-.156,3.391-3.581,1.423.156Z" transform="translate(-967.9 -499.2)" fill="#06506b"/>
        </g>
        <g id="Group_501" data-name="Group 501" transform="translate(26.404 18.686)">
          <path id="Path_1415" data-name="Path 1415" d="M950.239,680.921l-1.423-.156L948.1,680l1.42.156Z" transform="translate(-948.1 -680)" fill="#064a62"/>
        </g>
        <g id="Group_502" data-name="Group 502" transform="translate(27.192 7.14)">
          <path id="Path_1416" data-name="Path 1416" d="M970.223,381.414l-1.423-.156.046-4.658,1.423.152Z" transform="translate(-968.8 -376.6)" fill="#064a62"/>
        </g>
        <g id="Group_503" data-name="Group 503" transform="translate(25.228 15.386)">
          <path id="Path_1417" data-name="Path 1417" d="M918.623,595.5l-1.423-.156,1.929-2.04,1.423.156Z" transform="translate(-917.2 -593.3)" fill="#06506b"/>
        </g>
        <g id="Group_504" data-name="Group 504" transform="translate(25.228 17.426)">
          <path id="Path_1418" data-name="Path 1418" d="M919.8,648.316l-1.419-.156L917.2,646.9l1.423.156Z" transform="translate(-917.2 -646.9)" fill="#064a62"/>
        </g>
        <g id="Group_506" data-name="Group 506" transform="translate(25.883 5.507)">
          <g id="Group_505" data-name="Group 505" clip-path="url(#clip-path-5)">
            <path id="Path_1419" data-name="Path 1419" d="M937.178,335.485l-1.423-.156a1.694,1.694,0,0,0-.373-1.1,1.5,1.5,0,0,0-.982-.529l1.423.156a1.483,1.483,0,0,1,.982.529,1.7,1.7,0,0,1,.373,1.1" transform="translate(-934.4 -333.7)" fill="#064c66"/>
          </g>
        </g>
        <g id="Group_507" data-name="Group 507" transform="translate(5.066 29.342)">
          <path id="Path_1421" data-name="Path 1421" d="M388.823,962.158l-1.423-.152L407.989,960l1.423.152Z" transform="translate(-387.4 -960)" fill="#065471"/>
        </g>
        <g id="Group_509" data-name="Group 509" transform="translate(4.685 31.348)">
          <g id="Group_508" data-name="Group 508" clip-path="url(#clip-path-6)">
            <path id="Path_1422" data-name="Path 1422" d="M378.823,1012.86l-1.423-.156a1.053,1.053,0,0,0,.19.008,1.655,1.655,0,0,0,.19-.011l1.423.156a1.653,1.653,0,0,1-.19.011c-.065,0-.129,0-.19-.008" transform="translate(-377.4 -1012.7)" fill="#065572"/>
          </g>
        </g>
        <g id="Group_510" data-name="Group 510" transform="translate(5.728 0.03)">
          <path id="Path_1424" data-name="Path 1424" d="M406.223,189.956,404.8,189.8l20.555,1.937,1.423.152Z" transform="translate(-404.8 -189.8)" fill="#065470"/>
        </g>
        <g id="Group_512" data-name="Group 512" transform="translate(5.321 3.574)">
          <g id="Group_511" data-name="Group 511" clip-path="url(#clip-path-7)">
            <path id="Path_1425" data-name="Path 1425" d="M395.431,283.056l-1.423-.156H394l1.423.156h.008" transform="translate(-394.004 -282.9)" fill="#064c66"/>
          </g>
        </g>
        <g id="Group_514" data-name="Group 514" transform="translate(5.1 0.001)">
          <g id="Group_513" data-name="Group 513" clip-path="url(#clip-path-8)">
            <path id="Path_1427" data-name="Path 1427" d="M389.723,189.138l-1.423-.156a5.342,5.342,0,0,1,.6.027l1.423.156a4.571,4.571,0,0,0-.6-.027" transform="translate(-388.3 -188.983)" fill="#065572"/>
          </g>
        </g>
        <g id="Group_516" data-name="Group 516" transform="translate(0 29.726)">
          <g id="Group_515" data-name="Group 515" transform="translate(0 0)" clip-path="url(#clip-path-9)">
            <path id="Path_1429" data-name="Path 1429" d="M260.028,975.424l-1.423-.156a4.56,4.56,0,0,1-.951-.209,4.732,4.732,0,0,1-1.758-1.084,5.052,5.052,0,0,1-1.2-1.747,5.4,5.4,0,0,1-.4-2.128l1.423.156a5.4,5.4,0,0,0,.4,2.127,5.088,5.088,0,0,0,1.2,1.747,4.732,4.732,0,0,0,1.758,1.085,4.575,4.575,0,0,0,.951.209" transform="translate(-254.292 -970.1)" fill="#064c66"/>
          </g>
        </g>
        <g id="Group_517" data-name="Group 517" transform="translate(0.008 5.229)">
          <path id="Path_1431" data-name="Path 1431" d="M255.923,351.057,254.5,350.9l.232-24.5,1.42.156Z" transform="translate(-254.5 -326.4)" fill="#064a62"/>
        </g>
        <g id="Group_519" data-name="Group 519" transform="translate(0.236)">
          <g id="Group_518" data-name="Group 518" clip-path="url(#clip-path-10)">
            <path id="Path_1432" data-name="Path 1432" d="M261.923,235.268l-1.423-.156a5.531,5.531,0,0,1,.441-2.131,5.257,5.257,0,0,1,.959-1.48l1.423.156a5.151,5.151,0,0,0-.959,1.48,5.516,5.516,0,0,0-.441,2.131" transform="translate(-260.5 -229.883)" fill="#064c66"/>
            <path id="Path_1433" data-name="Path 1433" d="M298.823,207.126l-1.423-.156c.088-.1.179-.186.27-.274a5.209,5.209,0,0,1,.917-.7l1.423.156a5.208,5.208,0,0,0-.917.7c-.1.088-.183.183-.27.274" transform="translate(-295.996 -205.353)" fill="#064f6a"/>
            <path id="Path_1434" data-name="Path 1434" d="M330.023,192.112l-1.423-.156a4.637,4.637,0,0,1,.86-.4,4.217,4.217,0,0,1,.571-.156l1.423.156a4.217,4.217,0,0,0-.571.156,4.752,4.752,0,0,0-.86.4" transform="translate(-326.008 -191.309)" fill="#06526e"/>
            <path id="Path_1435" data-name="Path 1435" d="M367.623,189.247l-1.423-.156a4.413,4.413,0,0,1,.841-.091l1.423.156a4.411,4.411,0,0,0-.841.091" transform="translate(-362.177 -189)" fill="#065572"/>
          </g>
        </g>
        <g id="Group_520" data-name="Group 520" transform="translate(1.427 0.155)">
          <path id="Path_1437" data-name="Path 1437" d="M296.889,193.082a5.025,5.025,0,0,1,.628.03l20.555,1.933a4.727,4.727,0,0,1,3.094,1.69,5.322,5.322,0,0,1,1.218,3.467l-.011,1.088-3.391,3.581.046-4.658a1.693,1.693,0,0,0-.373-1.1,1.5,1.5,0,0,0-.982-.529l-20.558-1.929c-.08-.008-.156-.011-.232-.011a1.434,1.434,0,0,0-.415.068,1.553,1.553,0,0,0-.563.354,1.585,1.585,0,0,0-.518,1.229l-.232,24.5a1.687,1.687,0,0,0,.114.677,1.6,1.6,0,0,0,.384.548,1.548,1.548,0,0,0,.559.35,1.34,1.34,0,0,0,.457.065,1.651,1.651,0,0,0,.19-.011l20.585-2.009a1.534,1.534,0,0,0,.989-.537,1.719,1.719,0,0,0,.4-1.1l.034-3.676,4.567-4.826,2.116,2.261a5.206,5.206,0,0,0,1.739,1.244,5.084,5.084,0,0,0,2.07.422,5.359,5.359,0,0,0,3.84-1.7,5.991,5.991,0,0,0,1.621-4.072,5.86,5.86,0,0,0-1.541-4.064,5.163,5.163,0,0,0-5.88-1.229,5.524,5.524,0,0,0-1.766,1.26l-3.334,3.524-2.923,3.09-.457-.491-.719-.769-1.176-1.256,1.929-2.04,3.391-3.581.936-.989a8.918,8.918,0,0,1,2.866-2.028,8.309,8.309,0,0,1,9.529,1.983,9.5,9.5,0,0,1,2.5,6.58,9.715,9.715,0,0,1-2.63,6.6,8.607,8.607,0,0,1-6.116,2.752,8.389,8.389,0,0,1-3.448-.7,8.594,8.594,0,0,1-2.831-2.009l-.921-.978-.042,4.67a5.441,5.441,0,0,1-1.283,3.478,4.862,4.862,0,0,1-3.124,1.713l-20.593,2.006a4.652,4.652,0,0,1-.51.034,4.589,4.589,0,0,1-1.526-.236,4.733,4.733,0,0,1-1.758-1.085,5.051,5.051,0,0,1-1.2-1.747,5.4,5.4,0,0,1-.4-2.127l.232-24.5a5.532,5.532,0,0,1,.441-2.131,5.258,5.258,0,0,1,1.229-1.754,4.865,4.865,0,0,1,1.777-1.1A5.1,5.1,0,0,1,296.889,193.082Z" transform="translate(-291.792 -193.081)" fill="#0a87b4"/>
        </g>
      </g>
    </g>
    <g id="Group_528" data-name="Group 528" transform="translate(145.12 208.079)">
      <g id="Group_527" data-name="Group 527" transform="translate(0 0)">
        <g id="Group_523" data-name="Group 523" transform="translate(1.423 0.156)">
          <path id="Path_1438" data-name="Path 1438" d="M525,694.411l3.463-.011a5.706,5.706,0,0,0,1.3,2.276,5.315,5.315,0,0,0,2.131,1.393l-.034,3.684a8.462,8.462,0,0,1-4.495-2.542A9.313,9.313,0,0,1,525,694.411Z" transform="translate(-525 -694.4)" fill="#ba915e"/>
        </g>
        <g id="Group_524" data-name="Group 524" transform="translate(0)">
          <path id="Path_1439" data-name="Path 1439" d="M489.023,690.467l-1.423-.156,3.463-.011,1.42.156Z" transform="translate(-487.6 -690.3)" fill="#745a3a"/>
        </g>
        <g id="Group_526" data-name="Group 526" transform="translate(0 0.011)">
          <g id="Group_525" data-name="Group 525" clip-path="url(#clip-path-11)">
            <path id="Path_1440" data-name="Path 1440" d="M495.877,698.093l-1.423-.156a8.461,8.461,0,0,1-4.495-2.542,9.325,9.325,0,0,1-2.36-4.8l1.423.156a9.384,9.384,0,0,0,2.36,4.8,8.459,8.459,0,0,0,4.495,2.542" transform="translate(-487.6 -690.6)" fill="#695235"/>
          </g>
        </g>
      </g>
    </g>
    <g id="Group_535" data-name="Group 535" transform="translate(145.379 197.274)">
      <g id="Group_534" data-name="Group 534" transform="translate(0 0)">
        <g id="Group_530" data-name="Group 530" transform="translate(2.451)">
          <g id="Group_529" data-name="Group 529" clip-path="url(#clip-path-12)">
            <path id="Path_1442" data-name="Path 1442" d="M560.223,434.728l-1.423-.156A8.919,8.919,0,0,1,560.756,433l1.423.156a8.918,8.918,0,0,0-1.956,1.572" transform="translate(-558.8 -431.988)" fill="#6d5537"/>
            <path id="Path_1443" data-name="Path 1443" d="M611.523,407.568l-1.423-.156a8.51,8.51,0,0,1,2.588-1.012l1.423.156a8.551,8.551,0,0,0-2.588,1.012" transform="translate(-608.148 -406.4)" fill="#715839"/>
          </g>
        </g>
        <g id="Group_531" data-name="Group 531" transform="translate(1.427 0.156)">
          <path id="Path_1445" data-name="Path 1445" d="M534.347,413.084a8.723,8.723,0,0,1,4.544-2.584l-.034,3.68a5.466,5.466,0,0,0-2.158,1.408,5.863,5.863,0,0,0-1.34,2.283l-3.459.011A9.578,9.578,0,0,1,534.347,413.084Z" transform="translate(-531.9 -410.5)" fill="#ba915e"/>
        </g>
        <g id="Group_533" data-name="Group 533" transform="translate(0 2.584)">
          <g id="Group_532" data-name="Group 532" clip-path="url(#clip-path-13)">
            <path id="Path_1446" data-name="Path 1446" d="M495.823,481.86,494.4,481.7a9.624,9.624,0,0,1,2.356-4.7l1.423.156a9.623,9.623,0,0,0-2.356,4.7" transform="translate(-494.4 -476.897)" fill="#695235"/>
            <path id="Path_1447" data-name="Path 1447" d="M557.723,474.459,556.3,474.3c.03-.034.061-.069.1-.1l1.423.156c-.034.038-.065.072-.1.1" transform="translate(-553.944 -474.204)" fill="#6d5537"/>
          </g>
        </g>
      </g>
    </g>
    <g id="Group_542" data-name="Group 542" transform="translate(155.814 197.404)">
      <g id="Group_541" data-name="Group 541" transform="translate(0 0)">
        <g id="Group_536" data-name="Group 536" transform="translate(2.135 5.073)">
          <path id="Path_1449" data-name="Path 1449" d="M828.243,545.528l-1.423-.156L824.7,543.1l1.42.156Z" transform="translate(-824.7 -543.1)" fill="#654f33"/>
        </g>
        <g id="Group_538" data-name="Group 538" transform="translate(0 3.673)">
          <g id="Group_537" data-name="Group 537" clip-path="url(#clip-path-14)">
            <path id="Path_1450" data-name="Path 1450" d="M772.154,507.857l-1.423-.156a5.356,5.356,0,0,0-1.743-1.248c-.126-.057-.255-.107-.388-.152l1.423.156c.133.046.263.1.388.152a5.317,5.317,0,0,1,1.743,1.248" transform="translate(-768.6 -506.3)" fill="#695235"/>
          </g>
        </g>
        <g id="Group_539" data-name="Group 539" transform="translate(1.423 0.156)">
          <path id="Path_1452" data-name="Path 1452" d="M806.038,413.9a8.378,8.378,0,0,1,1.663.529,8.523,8.523,0,0,1,2.831,2.009l2.124,2.272-2.4,2.535-2.127-2.272a5.355,5.355,0,0,0-1.743-1.248c-.126-.057-.255-.107-.388-.152Z" transform="translate(-806 -413.9)" fill="#ba915e"/>
        </g>
        <g id="Group_540" data-name="Group 540" transform="translate(0.004)">
          <path id="Path_1453" data-name="Path 1453" d="M770.119,413.628l-1.42-.156.034-3.672,1.423.156Z" transform="translate(-768.7 -409.8)" fill="#654f33"/>
        </g>
      </g>
    </g>
    <g id="Group_543" data-name="Group 543" transform="translate(157.344 205.963)">
      <path id="Path_1454" data-name="Path 1454" d="M810.223,639.4l-1.423-.156,4.567-4.544,1.26.426Z" transform="translate(-808.8 -634.7)" fill="#695235"/>
    </g>
    <g id="Group_544" data-name="Group 544" transform="translate(156.579 206.29)">
      <path id="Path_1455" data-name="Path 1455" d="M795.292,643.3l2.116,2.763-4.167,4.125a8.876,8.876,0,0,1-2.862,2.029,9,9,0,0,1-1.678.544l.034-3.673c.133-.046.263-.1.388-.156a5.524,5.524,0,0,0,1.766-1.26Z" transform="translate(-788.7 -643.3)" fill="#ba915e"/>
    </g>
    <g id="Group_545" data-name="Group 545" transform="translate(155.152 211.922)">
      <path id="Path_1456" data-name="Path 1456" d="M752.623,795.128l-1.423-.156.034-3.673,1.423.156Z" transform="translate(-751.2 -791.3)" fill="#634e31"/>
    </g>
    <g id="Group_547" data-name="Group 547" transform="translate(155.186 210.507)">
      <path id="Path_1457" data-name="Path 1457" d="M753.523,755.672l-1.423-.156c.133-.046.263-.1.388-.156a5.524,5.524,0,0,0,1.766-1.26l1.423.156a5.526,5.526,0,0,1-1.766,1.26C753.786,755.573,753.656,755.626,753.523,755.672Z" transform="translate(-752.1 -754.1)" fill="#695235"/>
      <g id="Group_546" data-name="Group 546" transform="translate(0)" clip-path="url(#clip-path-15)">
        <path id="Path_1458" data-name="Path 1458" d="M753.523,780.2l-1.423-.156c.133-.046.263-.1.388-.156a5.124,5.124,0,0,0,.556-.289l1.423.156a5.921,5.921,0,0,1-.556.289c-.126.057-.255.11-.388.156" transform="translate(-752.1 -778.63)" fill="#695235"/>
        <path id="Path_1459" data-name="Path 1459" d="M778.423,755.227,777,755.07a5.675,5.675,0,0,0,1.21-.971l1.423.156a5.676,5.676,0,0,1-1.21.97" transform="translate(-776.052 -754.1)" fill="#695235"/>
      </g>
    </g>
    <g id="Group_548" data-name="Group 548" transform="translate(189.737 202.708)">
      <path id="Path_1461" data-name="Path 1461" d="M130.282,1169.443a3.414,3.414,0,0,1,2.618-1.043,3.213,3.213,0,0,1,1.61.354,1.147,1.147,0,0,1,.628,1.081c0,.126-.015.2-.049.224s-.118.011-.259-.038a2.648,2.648,0,0,1-.244-.122,2.684,2.684,0,0,0-.316-.148c-.084-.034-.2-.072-.335-.114a2.643,2.643,0,0,0-.464-.1,4.15,4.15,0,0,0-.552-.034,2.025,2.025,0,0,0-1.743.8,3.687,3.687,0,0,0-.586,2.219q0,2.877,2.306,2.881a4.508,4.508,0,0,0,.833-.076,3.534,3.534,0,0,0,.6-.156c.137-.053.339-.137.613-.255.126-.046.206-.049.244-.015s.053.11.053.236a1.055,1.055,0,0,1-.487.925,3.1,3.1,0,0,1-1.819.442q-3.631,0-3.631-3.927A4.453,4.453,0,0,1,130.282,1169.443Z" transform="translate(-129.3 -1168.331)" fill="#0b93c4"/>
      <path id="Path_1462" data-name="Path 1462" d="M310.57,1166.932a1.04,1.04,0,0,1,.225.75v2.417a1.747,1.747,0,0,1,1.366-.563c1.134,0,1.7.715,1.7,2.15v2.561a.585.585,0,0,1-.084.384.545.545,0,0,1-.369.088h-.285a.538.538,0,0,1-.369-.088.61.61,0,0,1-.084-.384V1171.8c0-.788-.3-1.18-.906-1.18-.59,0-.913.369-.97,1.1v2.527a.581.581,0,0,1-.088.384.563.563,0,0,1-.377.088h-.274a.538.538,0,0,1-.369-.088.61.61,0,0,1-.084-.384v-7.128a1.918,1.918,0,0,1,.011-.259.2.2,0,0,1,.053-.114.212.212,0,0,1,.156-.046A1.012,1.012,0,0,1,310.57,1166.932Z" transform="translate(-302.738 -1166.696)" fill="#0b93c4"/>
      <path id="Path_1463" data-name="Path 1463" d="M452.494,1172.983a.7.7,0,0,1,.5-.183.718.718,0,0,1,.514.183.641.641,0,0,1,.194.491.651.651,0,0,1-.194.495.722.722,0,0,1-.514.187.69.69,0,0,1-.5-.187.656.656,0,0,1-.194-.495A.641.641,0,0,1,452.494,1172.983Zm.868,2.729a1.057,1.057,0,0,1,.221.75v3.65a.585.585,0,0,1-.084.384.538.538,0,0,1-.369.088h-.274a.577.577,0,0,1-.377-.088.559.559,0,0,1-.088-.384V1175.9a1.065,1.065,0,0,1,.034-.343c.023-.053.088-.076.2-.076A.987.987,0,0,1,453.362,1175.711Z" transform="translate(-440.008 -1172.564)" fill="#0b93c4"/>
      <path id="Path_1464" data-name="Path 1464" d="M514.3,1245.767a2.831,2.831,0,0,1-.6-1.9,2.9,2.9,0,0,1,.613-1.968,2.393,2.393,0,0,1,1.9-.7,2.147,2.147,0,0,1,1,.232.926.926,0,0,1,.419.871c0,.141-.027.225-.084.255s-.167.015-.335-.046a2.417,2.417,0,0,0-.894-.186c-.921,0-1.378.506-1.378,1.522a1.307,1.307,0,0,0,1.469,1.488,3.725,3.725,0,0,0,.917-.164.9.9,0,0,1,.331-.061c.038.011.053.076.053.194a.966.966,0,0,1-.476.917,2.243,2.243,0,0,1-1.1.244A2.312,2.312,0,0,1,514.3,1245.767Z" transform="translate(-499.071 -1238.361)" fill="#0b93c4"/>
      <path id="Path_1465" data-name="Path 1465" d="M643.967,1166.836a1.039,1.039,0,0,1,.225.75v3.939l1.347-1.469a2.551,2.551,0,0,1,.453-.457.953.953,0,0,1,.464-.084h.407c.175,0,.285.042.327.126s.011.186-.084.3l-1.7,1.876,1.69,2.371c.205.285.145.43-.187.43h-.441a1.111,1.111,0,0,1-.426-.061.783.783,0,0,1-.293-.293l-1.557-2.219v2.1a.585.585,0,0,1-.084.385.568.568,0,0,1-.381.088h-.266a.368.368,0,0,1-.464-.472v-7.128a1.065,1.065,0,0,1,.034-.343c.023-.053.088-.076.2-.076A1,1,0,0,1,643.967,1166.836Z" transform="translate(-623.45 -1166.6)" fill="#0b93c4"/>
      <path id="Path_1466" data-name="Path 1466" d="M832.582,1169.443a3.414,3.414,0,0,1,2.618-1.043,3.213,3.213,0,0,1,1.61.354,1.147,1.147,0,0,1,.628,1.081c0,.126-.015.2-.049.224s-.118.011-.259-.038a2.632,2.632,0,0,1-.244-.122,2.692,2.692,0,0,0-.316-.148c-.084-.034-.2-.072-.335-.114a2.641,2.641,0,0,0-.464-.1,4.151,4.151,0,0,0-.552-.034,2.025,2.025,0,0,0-1.743.8,3.687,3.687,0,0,0-.586,2.219q0,2.877,2.306,2.881a4.509,4.509,0,0,0,.833-.076,3.533,3.533,0,0,0,.6-.156c.137-.053.339-.137.613-.255.126-.046.206-.049.244-.015s.053.11.053.236a1.055,1.055,0,0,1-.487.925,3.1,3.1,0,0,1-1.819.442q-3.631,0-3.631-3.927A4.471,4.471,0,0,1,832.582,1169.443Z" transform="translate(-804.873 -1168.331)" fill="#0b93c4"/>
      <path id="Path_1467" data-name="Path 1467" d="M1012.87,1166.932a1.04,1.04,0,0,1,.224.75v2.417a1.747,1.747,0,0,1,1.366-.563c1.134,0,1.7.715,1.7,2.15v2.561a.585.585,0,0,1-.084.384.545.545,0,0,1-.369.088h-.285a.538.538,0,0,1-.369-.088.609.609,0,0,1-.084-.384V1171.8c0-.788-.3-1.18-.906-1.18-.59,0-.913.369-.97,1.1v2.527a.581.581,0,0,1-.087.384.563.563,0,0,1-.377.088h-.274a.538.538,0,0,1-.369-.088.609.609,0,0,1-.084-.384v-7.128a1.921,1.921,0,0,1,.011-.259.2.2,0,0,1,.053-.114.211.211,0,0,1,.156-.046A1.006,1.006,0,0,1,1012.87,1166.932Z" transform="translate(-978.311 -1166.696)" fill="#0b93c4"/>
      <path id="Path_1468" data-name="Path 1468" d="M1147.453,1243.838a2.35,2.35,0,0,1,1.438-.346,11.621,11.621,0,0,1,1.168.088v-.3c0-.632-.384-.948-1.157-.948a5.536,5.536,0,0,0-1.145.145.712.712,0,0,1-.327.027c-.042-.019-.061-.087-.061-.206a.8.8,0,0,1,.517-.837,4.138,4.138,0,0,1,1.248-.163,3.71,3.71,0,0,1,.468.026,2.83,2.83,0,0,1,.544.137,1.791,1.791,0,0,1,.544.285,1.4,1.4,0,0,1,.392.529,1.905,1.905,0,0,1,.163.818v3.01a1.071,1.071,0,0,1-.034.343c-.023.053-.088.076-.2.076-.479,0-.776-.164-.894-.487a2.1,2.1,0,0,1-1.477.506q-1.644,0-1.644-1.587A1.336,1.336,0,0,1,1147.453,1243.838Zm2.607,1.362v-.708a5.823,5.823,0,0,0-.894-.065,1.839,1.839,0,0,0-.738.11.427.427,0,0,0-.232.43c0,.4.27.605.807.605A1.525,1.525,0,0,0,1150.06,1245.2Z" transform="translate(-1108.27 -1238.457)" fill="#0b93c4"/>
      <path id="Path_1469" data-name="Path 1469" d="M1283.6,1245.767a2.831,2.831,0,0,1-.6-1.9,2.894,2.894,0,0,1,.613-1.968,2.393,2.393,0,0,1,1.9-.7,2.148,2.148,0,0,1,1,.232.926.926,0,0,1,.419.871c0,.141-.027.225-.084.255s-.167.015-.335-.046a2.418,2.418,0,0,0-.895-.186c-.921,0-1.377.506-1.377,1.522a1.307,1.307,0,0,0,1.469,1.488,3.726,3.726,0,0,0,.917-.164.9.9,0,0,1,.331-.061c.038.011.053.076.053.194a.966.966,0,0,1-.476.917,2.243,2.243,0,0,1-1.1.244A2.312,2.312,0,0,1,1283.6,1245.767Z" transform="translate(-1239.094 -1238.361)" fill="#0b93c4"/>
      <path id="Path_1470" data-name="Path 1470" d="M1413.266,1166.836a1.04,1.04,0,0,1,.225.75v3.939l1.347-1.469a2.557,2.557,0,0,1,.453-.457.954.954,0,0,1,.464-.084h.407c.175,0,.285.042.328.126s.011.186-.084.3l-1.7,1.876,1.69,2.371c.205.285.145.43-.186.43h-.442a1.112,1.112,0,0,1-.426-.061.784.784,0,0,1-.293-.293l-1.556-2.219v2.1a.586.586,0,0,1-.084.385.568.568,0,0,1-.381.088h-.266a.576.576,0,0,1-.377-.088.559.559,0,0,1-.088-.385v-7.128a1.065,1.065,0,0,1,.034-.343c.023-.053.088-.076.2-.076A1,1,0,0,1,1413.266,1166.836Z" transform="translate(-1363.473 -1166.6)" fill="#0b93c4"/>
    </g>
  </g>
</svg>
