<svg xmlns="http://www.w3.org/2000/svg" xmlns:xlink="http://www.w3.org/1999/xlink" width="62.181" height="53.187" viewBox="0 0 62.181 53.187"><defs><style>.a{clip-path:url(#a);}.b{fill:#065572;}.c{fill:#06526e;}.d{fill:#064f6a;}.e{fill:#064c66;}.f{clip-path:url(#b);}.g{fill:#064a62;}.h{clip-path:url(#c);}.i{fill:#06506b;}.j{clip-path:url(#d);}.k{clip-path:url(#e);}.l{fill:#065471;}.m{clip-path:url(#f);}.n{fill:#065470;}.o{clip-path:url(#g);}.p{clip-path:url(#h);}.q{clip-path:url(#i);}.r{clip-path:url(#j);}.s{fill:#0a87b4;}.t{fill:#ba915e;}.u{fill:#745a3a;}.v{clip-path:url(#k);}.w{fill:#695235;}.x{clip-path:url(#l);}.y{fill:#6d5537;}.z{fill:#715839;}.aa{clip-path:url(#m);}.ab{fill:#654f33;}.ac{clip-path:url(#n);}.ad{fill:#634e31;}.ae{clip-path:url(#o);}.af{fill:#0b93c4;}</style><clipPath id="a"><path d="M1227.569,508.993l-1.669-.183a5.928,5.928,0,0,0,.692.036,6.281,6.281,0,0,0,4.5-1.99,7.023,7.023,0,0,0,1.9-4.773,6.869,6.869,0,0,0-1.807-4.765,6.117,6.117,0,0,0-3.792-1.918l1.668.183a6.106,6.106,0,0,1,3.792,1.918,6.861,6.861,0,0,1,1.807,4.765,7.044,7.044,0,0,1-1.9,4.773,6.264,6.264,0,0,1-4.5,1.99C1228.024,509.029,1227.8,509.016,1227.569,508.993Z" transform="translate(-1225.9 -495.4)"/></clipPath><clipPath id="b"><path d="M1086.225,822.792l-1.669-.183a9.644,9.644,0,0,1-2.837-.754,10.075,10.075,0,0,1-3.319-2.356l1.669.183a10.075,10.075,0,0,0,3.319,2.356A9.638,9.638,0,0,0,1086.225,822.792Z" transform="translate(-1078.4 -819.5)"/></clipPath><clipPath id="c"><path d="M1089.947,400.862l1.668.183a11.286,11.286,0,0,0-1.173-.062,9.791,9.791,0,0,0-3.814.848,10.645,10.645,0,0,0-3.359,2.378l-1.668-.183a10.454,10.454,0,0,1,3.359-2.378,9.773,9.773,0,0,1,3.814-.848A11.279,11.279,0,0,1,1089.947,400.862Z" transform="translate(-1081.6 -400.8)"/></clipPath><clipPath id="d"><path d="M930.068,918.906l-1.669-.183a1.8,1.8,0,0,0,1.16-.629,2.015,2.015,0,0,0,.464-1.294l1.669.183a2.015,2.015,0,0,1-.464,1.294A1.76,1.76,0,0,1,930.068,918.906Z" transform="translate(-928.4 -916.8)"/></clipPath><clipPath id="e"><path d="M937.657,335.792l-1.669-.183a1.984,1.984,0,0,0-.437-1.289,1.757,1.757,0,0,0-1.151-.62l1.668.183a1.738,1.738,0,0,1,1.151.62A1.993,1.993,0,0,1,937.657,335.792Z" transform="translate(-934.4 -333.7)"/></clipPath><clipPath id="f"><path d="M379.068,1012.887l-1.668-.183a1.23,1.23,0,0,0,.223.009,1.931,1.931,0,0,0,.223-.013l1.668.183a1.929,1.929,0,0,1-.223.013C379.216,1012.9,379.14,1012.892,379.068,1012.887Z" transform="translate(-377.4 -1012.7)"/></clipPath><clipPath id="g"><path d="M394.1,282.9l1.668.183h.009l-1.669-.183Z" transform="translate(-394.1 -282.9)"/></clipPath><clipPath id="h"><path d="M389,189.072l1.669.183a5.36,5.36,0,0,0-.7-.031l-1.668-.183A4.686,4.686,0,0,1,389,189.072Z" transform="translate(-388.3 -189.038)"/></clipPath><clipPath id="i"><path d="M261.016,976.341l-1.669-.183a5.36,5.36,0,0,1-1.115-.245,5.548,5.548,0,0,1-2.061-1.271,5.922,5.922,0,0,1-1.405-2.048,6.332,6.332,0,0,1-.473-2.494l1.668.183a6.332,6.332,0,0,0,.473,2.494,5.964,5.964,0,0,0,1.405,2.048A5.548,5.548,0,0,0,259.9,976.1,5.36,5.36,0,0,0,261.016,976.341Z" transform="translate(-254.292 -970.1)"/></clipPath><clipPath id="j"><path d="M262.169,195.313l-1.669-.183a6.484,6.484,0,0,1,.518-2.5,6.163,6.163,0,0,1,1.441-2.057,5.7,5.7,0,0,1,2.083-1.285A5.358,5.358,0,0,1,266.2,189l1.668.183a5.358,5.358,0,0,0-1.655.29,5.7,5.7,0,0,0-2.083,1.285,6.1,6.1,0,0,0-1.441,2.057A6.467,6.467,0,0,0,262.169,195.313Z" transform="translate(-260.5 -189)"/></clipPath><clipPath id="k"><path d="M497.3,699.384l-1.669-.183a9.918,9.918,0,0,1-5.269-2.98A10.931,10.931,0,0,1,487.6,690.6l1.669.183a11,11,0,0,0,2.766,5.621A9.917,9.917,0,0,0,497.3,699.384Z" transform="translate(-487.6 -690.6)"/></clipPath><clipPath id="l"><path d="M560.469,409.612l-1.668-.183a10.226,10.226,0,0,1,5.327-3.029l1.668.183A10.209,10.209,0,0,0,560.469,409.612Z" transform="translate(-558.8 -406.4)"/></clipPath><clipPath id="m"><path d="M496.068,480.117l-1.668-.183a11.315,11.315,0,0,1,2.873-5.635l1.669.183A11.261,11.261,0,0,0,496.068,480.117Z" transform="translate(-494.4 -474.3)"/></clipPath><clipPath id="n"><path d="M772.767,508.125l-1.668-.183a6.281,6.281,0,0,0-2.043-1.463c-.147-.067-.3-.125-.455-.178l1.668.183c.156.054.308.112.455.178A6.233,6.233,0,0,1,772.767,508.125Z" transform="translate(-768.6 -506.3)"/></clipPath><clipPath id="o"><path d="M753.768,755.943l-1.669-.183c.156-.054.308-.116.455-.183a6.474,6.474,0,0,0,2.07-1.477l1.669.183a6.477,6.477,0,0,1-2.07,1.477C754.076,755.827,753.925,755.889,753.768,755.943Z" transform="translate(-752.1 -754.1)"/></clipPath></defs><g transform="translate(-129.3 -189)"><g transform="translate(134.876 189)"><g transform="translate(0 0)"><g transform="translate(43.346 13.669)"><g class="a"><path class="b" d="M1227.569,794.177l-1.669-.183a5.837,5.837,0,0,0,1.869-.094l1.668.183a6.746,6.746,0,0,1-1.178.129c-.236,0-.464-.013-.691-.036" transform="translate(-1225.9 -780.583)"/><path class="c" d="M1269.468,778.128l-1.668-.183a6.273,6.273,0,0,0,1.927-.745l1.669.183a6.186,6.186,0,0,1-1.927.745" transform="translate(-1265.931 -764.628)"/><path class="d" d="M1312.668,751.874l-1.668-.183a6.473,6.473,0,0,0,1.4-1.12c.022-.022.045-.049.067-.071l1.669.183c-.022.027-.045.049-.067.071a6.366,6.366,0,0,1-1.4,1.12" transform="translate(-1307.203 -739.12)"/><path class="e" d="M1264.834,506.964l-1.668-.183a7.028,7.028,0,0,0,1.833-4.7,6.869,6.869,0,0,0-1.807-4.765,6.116,6.116,0,0,0-3.792-1.918l1.668.183a6.106,6.106,0,0,1,3.792,1.918,6.861,6.861,0,0,1,1.807,4.765,7.027,7.027,0,0,1-1.833,4.7" transform="translate(-1257.905 -495.4)"/></g></g><g transform="translate(36.765 28.128)"><g class="f"><path class="e" d="M1086.225,822.792l-1.669-.183a9.644,9.644,0,0,1-2.837-.754,10.075,10.075,0,0,1-3.319-2.356l1.669.183a10.075,10.075,0,0,0,3.319,2.356,9.638,9.638,0,0,0,2.837.754" transform="translate(-1078.4 -819.5)"/></g></g><g transform="translate(35.686 26.982)"><path class="g" d="M1056.948,795.125l-1.669-.178-1.08-1.147,1.669.183Z" transform="translate(-1054.2 -793.8)"/></g><g transform="translate(36.908 9.449)"><g class="h"><path class="d" d="M1083.368,434.208l-1.668-.183a10.81,10.81,0,0,1,2.284-1.825l1.668.183a10.7,10.7,0,0,0-2.284,1.825" transform="translate(-1081.695 -430.799)"/><path class="c" d="M1134.469,406.587l-1.669-.183a9.8,9.8,0,0,1,1.075-.553,9.978,9.978,0,0,1,2.03-.651l1.668.183a9.706,9.706,0,0,0-2.03.651,10.617,10.617,0,0,0-1.075.553" transform="translate(-1130.516 -405.004)"/><path class="b" d="M1204.069,401.179,1202.4,401a9.462,9.462,0,0,1,1.784-.2,10.184,10.184,0,0,1,1.173.062l1.668.183a11.29,11.29,0,0,0-1.173-.062,10.255,10.255,0,0,0-1.784.2" transform="translate(-1197.011 -400.8)"/></g></g><g transform="translate(35.811 12.679)"><path class="i" d="M1058.668,474.543,1057,474.36l1.1-1.16,1.669.178Z" transform="translate(-1057 -473.2)"/></g><g transform="translate(31.742 22.511)"><path class="i" d="M967.468,699.435l-1.669-.183,5.354-5.652,1.668.178Z" transform="translate(-965.8 -693.6)"/></g><g transform="translate(31.702 28.164)"><path class="g" d="M966.569,824.792l-1.669-.183.04-4.31,1.669.183Z" transform="translate(-964.9 -820.3)"/></g><g transform="translate(31.791 22.801)"><path class="g" d="M969.1,700.858l-1.664-.183-.54-.576,1.668.183Z" transform="translate(-966.9 -700.1)"/></g><g transform="translate(30.073 32.469)"><g class="j" transform="translate(0 0)"><path class="b" d="M930.068,959.605l-1.669-.183a1.384,1.384,0,0,0,.143-.022l1.668.183a1.348,1.348,0,0,1-.143.022" transform="translate(-928.4 -957.5)"/><path class="c" d="M933.368,955l-1.669-.183a1.832,1.832,0,0,0,.558-.214l1.669.183a1.833,1.833,0,0,1-.558.214" transform="translate(-931.553 -952.914)"/><path class="d" d="M945.868,947.618l-1.669-.183a1.848,1.848,0,0,0,.41-.335l1.668.183a1.847,1.847,0,0,1-.41.335" transform="translate(-943.495 -945.748)"/><path class="e" d="M955.068,918.43l-1.669-.183c.018-.018.031-.036.049-.053a2.015,2.015,0,0,0,.464-1.294l1.669.183a2.015,2.015,0,0,1-.464,1.294.529.529,0,0,0-.049.054" transform="translate(-952.285 -916.896)"/></g></g><g transform="translate(31.836 13.839)"><path class="i" d="M969.569,503.581,967.9,503.4l3.975-4.2,1.669.183Z" transform="translate(-967.9 -499.2)"/></g><g transform="translate(30.952 21.905)"><path class="g" d="M950.607,681.08l-1.668-.183-.839-.9,1.664.183Z" transform="translate(-948.1 -680)"/></g><g transform="translate(31.876 8.369)"><path class="g" d="M970.469,382.243l-1.669-.183.054-5.461,1.669.178Z" transform="translate(-968.8 -376.6)"/></g><g transform="translate(29.574 18.037)"><path class="i" d="M918.869,595.874l-1.669-.183,2.262-2.391,1.669.183Z" transform="translate(-917.2 -593.3)"/></g><g transform="translate(29.574 20.428)"><path class="g" d="M920.243,648.56l-1.664-.183L917.2,646.9l1.669.183Z" transform="translate(-917.2 -646.9)"/></g><g transform="translate(30.341 6.455)"><g class="k"><path class="e" d="M937.657,335.792l-1.669-.183a1.984,1.984,0,0,0-.437-1.289,1.757,1.757,0,0,0-1.151-.62l1.668.183a1.738,1.738,0,0,1,1.151.62,1.993,1.993,0,0,1,.437,1.289" transform="translate(-934.4 -333.7)"/></g></g><g transform="translate(5.938 34.396)"><path class="l" d="M389.068,962.53l-1.668-.178L411.535,960l1.668.178Z" transform="translate(-387.4 -960)"/></g><g transform="translate(5.492 36.747)"><g class="m"><path class="b" d="M379.068,1012.887l-1.668-.183a1.23,1.23,0,0,0,.223.009,1.931,1.931,0,0,0,.223-.013l1.668.183a1.929,1.929,0,0,1-.223.013c-.076,0-.152,0-.223-.009" transform="translate(-377.4 -1012.7)"/></g></g><g transform="translate(6.715 0.036)"><path class="n" d="M406.469,189.983,404.8,189.8l24.1,2.271,1.669.178Z" transform="translate(-404.8 -189.8)"/></g><g transform="translate(6.237 4.189)"><g class="o"><path class="e" d="M395.677,283.083l-1.668-.183H394l1.669.183h.009" transform="translate(-394.004 -282.9)"/></g></g><g transform="translate(5.978 0.002)"><g class="p"><path class="b" d="M389.969,189.165l-1.668-.183a6.261,6.261,0,0,1,.7.031l1.669.183a5.358,5.358,0,0,0-.7-.031" transform="translate(-388.3 -188.983)"/></g></g><g transform="translate(0 34.847)"><g class="q" transform="translate(0 0)"><path class="e" d="M261.016,976.341l-1.669-.183a5.36,5.36,0,0,1-1.115-.245,5.548,5.548,0,0,1-2.061-1.271,5.922,5.922,0,0,1-1.405-2.048,6.332,6.332,0,0,1-.473-2.494l1.668.183a6.332,6.332,0,0,0,.473,2.494,5.964,5.964,0,0,0,1.405,2.048A5.548,5.548,0,0,0,259.9,976.1a5.36,5.36,0,0,0,1.115.245" transform="translate(-254.292 -970.1)"/></g></g><g transform="translate(0.009 6.13)"><path class="g" d="M256.168,355.3l-1.668-.183.272-28.721,1.664.183Z" transform="translate(-254.5 -326.4)"/></g><g transform="translate(0.277)"><g class="r"><path class="e" d="M262.169,235.917l-1.669-.183a6.484,6.484,0,0,1,.518-2.5,6.163,6.163,0,0,1,1.124-1.735l1.669.183a6.04,6.04,0,0,0-1.124,1.735,6.467,6.467,0,0,0-.517,2.5" transform="translate(-260.5 -229.604)"/><path class="d" d="M299.068,207.321l-1.668-.183c.1-.112.21-.219.317-.321a6.106,6.106,0,0,1,1.075-.816l1.668.183a6.107,6.107,0,0,0-1.075.816c-.112.1-.214.214-.317.321" transform="translate(-295.754 -205.242)"/><path class="c" d="M330.268,192.234l-1.668-.183a5.433,5.433,0,0,1,1.008-.468,4.948,4.948,0,0,1,.669-.183l1.668.183a4.949,4.949,0,0,0-.669.183,5.573,5.573,0,0,0-1.008.468" transform="translate(-325.562 -191.293)"/><path class="b" d="M367.869,189.29l-1.669-.183a5.172,5.172,0,0,1,.986-.107l1.668.183a5.171,5.171,0,0,0-.986.107" transform="translate(-361.484 -189)"/></g></g><g transform="translate(1.673 0.182)"><path class="s" d="M297.766,193.082a5.889,5.889,0,0,1,.736.036l24.1,2.266a5.542,5.542,0,0,1,3.627,1.981,6.239,6.239,0,0,1,1.428,4.064l-.013,1.276-3.975,4.2.054-5.461a1.984,1.984,0,0,0-.437-1.289,1.757,1.757,0,0,0-1.151-.62l-24.1-2.262c-.094-.009-.183-.013-.272-.013a1.681,1.681,0,0,0-.486.08,1.821,1.821,0,0,0-.66.415,1.858,1.858,0,0,0-.607,1.441l-.272,28.726a1.978,1.978,0,0,0,.134.794,1.874,1.874,0,0,0,.451.642,1.815,1.815,0,0,0,.656.41,1.571,1.571,0,0,0,.535.076,1.93,1.93,0,0,0,.223-.013l24.131-2.356a1.8,1.8,0,0,0,1.16-.629,2.015,2.015,0,0,0,.464-1.294l.04-4.31,5.353-5.657,2.48,2.65a6.1,6.1,0,0,0,2.039,1.459,5.96,5.96,0,0,0,2.427.5,6.282,6.282,0,0,0,4.5-1.99,7.024,7.024,0,0,0,1.9-4.773,6.869,6.869,0,0,0-1.807-4.765,6.053,6.053,0,0,0-6.893-1.441,6.475,6.475,0,0,0-2.07,1.477l-3.908,4.131-3.426,3.623-.535-.575-.843-.9-1.379-1.472,2.262-2.391,3.975-4.2,1.1-1.16a10.455,10.455,0,0,1,3.359-2.378,9.74,9.74,0,0,1,11.171,2.324,11.131,11.131,0,0,1,2.936,7.713,11.388,11.388,0,0,1-3.083,7.736,10.089,10.089,0,0,1-7.169,3.225,9.835,9.835,0,0,1-4.042-.816,10.074,10.074,0,0,1-3.319-2.356l-1.08-1.147-.049,5.474a6.379,6.379,0,0,1-1.5,4.078,5.7,5.7,0,0,1-3.663,2.008l-24.14,2.351a5.453,5.453,0,0,1-.6.04,5.379,5.379,0,0,1-1.789-.277,5.548,5.548,0,0,1-2.061-1.271,5.921,5.921,0,0,1-1.405-2.048,6.331,6.331,0,0,1-.473-2.494l.272-28.721a6.484,6.484,0,0,1,.518-2.5,6.163,6.163,0,0,1,1.441-2.057,5.7,5.7,0,0,1,2.083-1.285A5.98,5.98,0,0,1,297.766,193.082Z" transform="translate(-291.792 -193.081)"/></g></g></g><g transform="translate(145.285 211.364)"><g transform="translate(0 0)"><g transform="translate(1.669 0.183)"><path class="t" d="M525,694.413l4.06-.013a6.688,6.688,0,0,0,1.521,2.668,6.229,6.229,0,0,0,2.5,1.633l-.04,4.318a9.918,9.918,0,0,1-5.269-2.98A10.917,10.917,0,0,1,525,694.413Z" transform="translate(-525 -694.4)"/></g><g transform="translate(0)"><path class="u" d="M489.268,690.5l-1.668-.183,4.06-.013,1.664.183Z" transform="translate(-487.6 -690.3)"/></g><g transform="translate(0 0.013)"><g class="v"><path class="w" d="M497.3,699.384l-1.669-.183a9.918,9.918,0,0,1-5.269-2.98A10.931,10.931,0,0,1,487.6,690.6l1.669.183a11,11,0,0,0,2.766,5.621,9.917,9.917,0,0,0,5.269,2.98" transform="translate(-487.6 -690.6)"/></g></g></g></g><g transform="translate(145.588 198.699)"><g transform="translate(0 0)"><g transform="translate(2.873)"><g class="x"><path class="y" d="M560.469,435.025l-1.668-.183A10.454,10.454,0,0,1,561.093,433l1.669.183a10.453,10.453,0,0,0-2.293,1.842" transform="translate(-558.8 -431.813)"/><path class="z" d="M611.768,407.77l-1.669-.183a9.976,9.976,0,0,1,3.034-1.187l1.668.183a10.022,10.022,0,0,0-3.034,1.187" transform="translate(-607.811 -406.4)"/></g></g><g transform="translate(1.673 0.183)"><path class="t" d="M534.769,413.529A10.226,10.226,0,0,1,540.1,410.5l-.04,4.314a6.407,6.407,0,0,0-2.53,1.651,6.873,6.873,0,0,0-1.57,2.677l-4.055.013A11.227,11.227,0,0,1,534.769,413.529Z" transform="translate(-531.9 -410.5)"/></g><g transform="translate(0 3.029)"><g class="aa"><path class="w" d="M496.068,482.7l-1.668-.183A11.281,11.281,0,0,1,497.161,477l1.669.183a11.281,11.281,0,0,0-2.762,5.514" transform="translate(-494.4 -476.88)"/><path class="y" d="M557.969,474.5l-1.669-.183c.036-.04.071-.08.112-.12l1.668.183c-.04.045-.076.085-.111.12" transform="translate(-553.539 -474.204)"/></g></g></g></g><g transform="translate(157.821 198.85)"><g transform="translate(0 0)"><g transform="translate(2.503 5.947)"><path class="ab" d="M828.853,545.946l-1.669-.183L824.7,543.1l1.664.183Z" transform="translate(-824.7 -543.1)"/></g><g transform="translate(0 4.305)"><g class="ac"><path class="w" d="M772.767,508.125l-1.668-.183a6.281,6.281,0,0,0-2.043-1.463c-.147-.067-.3-.125-.455-.178l1.668.183c.156.054.308.112.455.178a6.233,6.233,0,0,1,2.043,1.463" transform="translate(-768.6 -506.3)"/></g></g><g transform="translate(1.669 0.183)"><path class="t" d="M806.045,413.9a9.823,9.823,0,0,1,1.949.62,9.991,9.991,0,0,1,3.319,2.356l2.489,2.663-2.811,2.971-2.494-2.663a6.28,6.28,0,0,0-2.043-1.463c-.147-.067-.3-.125-.455-.178Z" transform="translate(-806 -413.9)"/></g><g transform="translate(0.004)"><path class="ab" d="M770.364,414.288l-1.664-.183.04-4.305,1.669.183Z" transform="translate(-768.7 -409.8)"/></g></g></g><g transform="translate(159.614 208.884)"><path class="w" d="M810.468,640.21l-1.669-.183,5.354-5.327,1.477.5Z" transform="translate(-808.8 -634.7)"/></g><g transform="translate(158.717 209.267)"><path class="t" d="M796.427,643.3l2.48,3.239-4.885,4.836a10.4,10.4,0,0,1-3.355,2.378,10.555,10.555,0,0,1-1.967.638l.04-4.305c.156-.054.308-.116.455-.183a6.475,6.475,0,0,0,2.07-1.477Z" transform="translate(-788.7 -643.3)"/></g><g transform="translate(157.044 215.87)"><path class="ad" d="M752.869,795.788l-1.669-.183.04-4.305,1.669.183Z" transform="translate(-751.2 -791.3)"/></g><g transform="translate(157.085 214.21)"><path class="w" d="M753.768,755.943l-1.669-.183c.156-.054.308-.116.455-.183a6.474,6.474,0,0,0,2.07-1.477l1.669.183a6.477,6.477,0,0,1-2.07,1.477C754.076,755.827,753.925,755.889,753.768,755.943Z" transform="translate(-752.1 -754.1)"/><g class="ae" transform="translate(0)"><path class="w" d="M753.768,780.3l-1.669-.183c.156-.054.308-.116.455-.183a6.019,6.019,0,0,0,.651-.339l1.669.183a6.936,6.936,0,0,1-.651.339c-.147.067-.3.129-.455.183" transform="translate(-752.1 -778.463)"/><path class="w" d="M778.669,755.421,777,755.238a6.651,6.651,0,0,0,1.419-1.138l1.668.183a6.649,6.649,0,0,1-1.419,1.138" transform="translate(-775.889 -754.1)"/></g></g><g transform="translate(129.3 232.613)"><path class="af" d="M130.451,1169.622a4,4,0,0,1,3.069-1.222,3.767,3.767,0,0,1,1.887.415,1.345,1.345,0,0,1,.736,1.267c0,.147-.018.236-.058.263s-.138.013-.3-.045a3.134,3.134,0,0,1-.286-.143,3.2,3.2,0,0,0-.37-.174c-.1-.04-.232-.085-.393-.134a3.075,3.075,0,0,0-.544-.116,4.865,4.865,0,0,0-.647-.04,2.374,2.374,0,0,0-2.043.932,4.323,4.323,0,0,0-.687,2.6q0,3.373,2.7,3.377a5.28,5.28,0,0,0,.977-.089,4.142,4.142,0,0,0,.7-.183c.161-.062.4-.161.718-.3.147-.053.241-.058.286-.018s.062.129.062.277a1.236,1.236,0,0,1-.571,1.084,3.629,3.629,0,0,1-2.132.518q-4.256,0-4.256-4.6A5.22,5.22,0,0,1,130.451,1169.622Z" transform="translate(-129.3 -1168.32)"/><path class="af" d="M310.738,1166.972a1.219,1.219,0,0,1,.263.879v2.833a2.047,2.047,0,0,1,1.6-.66c1.329,0,1.99.839,1.99,2.521v3a.686.686,0,0,1-.1.451.638.638,0,0,1-.433.1h-.335a.631.631,0,0,1-.433-.1.715.715,0,0,1-.1-.451v-2.873c0-.924-.352-1.383-1.062-1.383-.691,0-1.071.433-1.138,1.294v2.962a.681.681,0,0,1-.1.451.66.66,0,0,1-.442.1h-.321a.63.63,0,0,1-.433-.1.715.715,0,0,1-.1-.451v-8.356a2.236,2.236,0,0,1,.013-.3.236.236,0,0,1,.062-.134.249.249,0,0,1,.183-.053A1.185,1.185,0,0,1,310.738,1166.972Z" transform="translate(-301.556 -1166.696)"/><path class="af" d="M452.528,1173.014a.824.824,0,0,1,.589-.214.843.843,0,0,1,.6.214.752.752,0,0,1,.228.575.763.763,0,0,1-.228.58.846.846,0,0,1-.6.219.809.809,0,0,1-.589-.219.77.77,0,0,1-.228-.58A.752.752,0,0,1,452.528,1173.014Zm1.017,3.2a1.239,1.239,0,0,1,.259.879v4.278a.686.686,0,0,1-.1.451.63.63,0,0,1-.433.1h-.321a.676.676,0,0,1-.442-.1.655.655,0,0,1-.1-.451v-4.939a1.248,1.248,0,0,1,.04-.4c.027-.062.1-.089.232-.089A1.157,1.157,0,0,1,453.545,1176.213Z" transform="translate(-437.89 -1172.523)"/><path class="af" d="M514.4,1246.553a3.319,3.319,0,0,1-.7-2.226,3.392,3.392,0,0,1,.718-2.307,2.8,2.8,0,0,1,2.231-.821,2.516,2.516,0,0,1,1.178.272,1.085,1.085,0,0,1,.491,1.021c0,.165-.031.263-.1.3s-.2.018-.393-.054a2.834,2.834,0,0,0-1.048-.219c-1.08,0-1.615.593-1.615,1.784a1.532,1.532,0,0,0,1.722,1.744,4.367,4.367,0,0,0,1.075-.192,1.053,1.053,0,0,1,.388-.071c.045.013.062.089.062.228a1.133,1.133,0,0,1-.558,1.075,2.631,2.631,0,0,1-1.294.286A2.71,2.71,0,0,1,514.4,1246.553Z" transform="translate(-496.551 -1237.872)"/><path class="af" d="M644.133,1166.877a1.219,1.219,0,0,1,.263.879v4.617l1.579-1.722a3,3,0,0,1,.531-.535,1.118,1.118,0,0,1,.544-.1h.477c.205,0,.335.049.384.147s.013.219-.1.357l-1.99,2.2,1.981,2.779c.241.335.17.5-.219.5h-.517a1.3,1.3,0,0,1-.5-.071.916.916,0,0,1-.344-.344l-1.825-2.6v2.458a.686.686,0,0,1-.1.451.666.666,0,0,1-.446.1h-.312a.431.431,0,0,1-.544-.553v-8.356a1.25,1.25,0,0,1,.04-.4c.027-.062.1-.089.232-.089A1.172,1.172,0,0,1,644.133,1166.877Z" transform="translate(-620.083 -1166.6)"/><path class="af" d="M832.751,1169.622a4,4,0,0,1,3.069-1.222,3.767,3.767,0,0,1,1.887.415,1.345,1.345,0,0,1,.736,1.267c0,.147-.018.236-.058.263s-.138.013-.3-.045a3.123,3.123,0,0,1-.286-.143,3.2,3.2,0,0,0-.37-.174c-.1-.04-.232-.085-.393-.134a3.074,3.074,0,0,0-.544-.116,4.865,4.865,0,0,0-.647-.04,2.374,2.374,0,0,0-2.043.932,4.323,4.323,0,0,0-.687,2.6q0,3.373,2.7,3.377a5.281,5.281,0,0,0,.977-.089,4.142,4.142,0,0,0,.7-.183c.161-.062.4-.161.718-.3.147-.053.241-.058.286-.018s.062.129.062.277a1.236,1.236,0,0,1-.571,1.084,3.629,3.629,0,0,1-2.132.518q-4.256,0-4.256-4.6A5.241,5.241,0,0,1,832.751,1169.622Z" transform="translate(-800.269 -1168.32)"/><path class="af" d="M1013.038,1166.972a1.219,1.219,0,0,1,.263.879v2.833a2.047,2.047,0,0,1,1.6-.66c1.329,0,1.99.839,1.99,2.521v3a.686.686,0,0,1-.1.451.639.639,0,0,1-.433.1h-.335a.63.63,0,0,1-.433-.1.715.715,0,0,1-.1-.451v-2.873c0-.924-.352-1.383-1.062-1.383-.692,0-1.071.433-1.138,1.294v2.962a.681.681,0,0,1-.1.451.66.66,0,0,1-.442.1h-.321a.63.63,0,0,1-.433-.1.715.715,0,0,1-.1-.451v-8.356a2.237,2.237,0,0,1,.013-.3.235.235,0,0,1,.063-.134.249.249,0,0,1,.183-.053A1.179,1.179,0,0,1,1013.038,1166.972Z" transform="translate(-972.525 -1166.696)"/><path class="af" d="M1147.531,1244.276a2.756,2.756,0,0,1,1.686-.406,13.6,13.6,0,0,1,1.37.1v-.348c0-.74-.451-1.111-1.356-1.111a6.483,6.483,0,0,0-1.343.169.835.835,0,0,1-.384.031c-.049-.022-.071-.1-.071-.241a.937.937,0,0,1,.607-.982,4.854,4.854,0,0,1,1.463-.192,4.321,4.321,0,0,1,.549.031,3.329,3.329,0,0,1,.638.161,2.1,2.1,0,0,1,.638.335,1.643,1.643,0,0,1,.46.62,2.231,2.231,0,0,1,.192.959v3.529a1.25,1.25,0,0,1-.04.4c-.027.063-.1.089-.232.089-.562,0-.91-.192-1.048-.571a2.457,2.457,0,0,1-1.731.593q-1.927,0-1.927-1.86A1.567,1.567,0,0,1,1147.531,1244.276Zm3.056,1.6v-.83a6.833,6.833,0,0,0-1.048-.076,2.155,2.155,0,0,0-.865.129.5.5,0,0,0-.272.5c0,.473.317.709.946.709A1.788,1.788,0,0,0,1150.587,1245.873Z" transform="translate(-1101.598 -1237.968)"/><path class="af" d="M1283.7,1246.553a3.319,3.319,0,0,1-.7-2.226,3.393,3.393,0,0,1,.718-2.307,2.8,2.8,0,0,1,2.231-.821,2.517,2.517,0,0,1,1.178.272,1.085,1.085,0,0,1,.491,1.021c0,.165-.031.263-.1.3s-.2.018-.393-.054a2.834,2.834,0,0,0-1.048-.219c-1.08,0-1.615.593-1.615,1.784a1.532,1.532,0,0,0,1.722,1.744,4.367,4.367,0,0,0,1.075-.192,1.053,1.053,0,0,1,.388-.071c.045.013.063.089.063.228a1.133,1.133,0,0,1-.558,1.075,2.631,2.631,0,0,1-1.294.286A2.71,2.71,0,0,1,1283.7,1246.553Z" transform="translate(-1231.531 -1237.872)"/><path class="af" d="M1413.433,1166.877a1.219,1.219,0,0,1,.263.879v4.617l1.579-1.722a3.007,3.007,0,0,1,.531-.535,1.118,1.118,0,0,1,.544-.1h.477c.205,0,.335.049.384.147s.013.219-.1.357l-1.99,2.2,1.981,2.779c.241.335.17.5-.219.5h-.518a1.3,1.3,0,0,1-.5-.071.917.917,0,0,1-.344-.344l-1.825-2.6v2.458a.686.686,0,0,1-.1.451.666.666,0,0,1-.446.1h-.312a.677.677,0,0,1-.442-.1.656.656,0,0,1-.1-.451v-8.356a1.25,1.25,0,0,1,.04-.4c.027-.062.1-.089.232-.089A1.171,1.171,0,0,1,1413.433,1166.877Z" transform="translate(-1355.063 -1166.6)"/></g></g></svg>