<svg xmlns="http://www.w3.org/2000/svg" width="97.243" height="40.903" viewBox="0 0 97.243 40.903">
  <path id="path815" d="M92.255,39.693,77.848.026,77.838,0h-.284L74.587,8.151l-5.4,14.84-.013-.012a14.051,14.051,0,0,0-7.839-3.069l-1.015-.1,1.006-.129c5.485-.986,9.172-4.45,9.172-8.623,0-5.723-5.383-9.718-13.094-9.718H41.361v.29h4.662V31.2L34.7.026,34.69,0h-.284L31.439,8.151,20,39.591l-.07.008q-.293.036-.58.058c-.288.023-.574.036-.861.036H6.922L28.9,1.625l.163-.286H2.183V13.115h.285C2.519,7.379,5.86,1.625,13.24,1.625h8.9L0,39.978H29.833V28.7h-.285c-.039,5-2.873,9.748-9.036,10.82l-.2.033,4.694-12.9H38.157l4.738,13.044H38.221v.285H56.565v-.285H51.871V20.016h5.416c5.511,0,8.672,2.462,8.672,6.753v3.49c0,.385.026.947.055,1.417v.017l-2.911,8H59.3v.285h7.872v-.285H63.41l2.651-7.282c.005.07.008.113.008.113l.073.656.07.434a8.864,8.864,0,0,0,3.052,5.867l.227.165A7.624,7.624,0,0,0,73.934,40.9a6.4,6.4,0,0,0,5.129-1.934l-.167-.157A4.712,4.712,0,0,1,75.5,40.333c-2.1,0-3.2-2.55-3.2-5.064v-4.89a10.98,10.98,0,0,0-.562-3.572l-.052-.152V26.65H81.3l4.738,13.044H81.369v.285H97.243v-.285ZM25.114,26.363,31.591,8.568l6.463,17.795Zm26.76-6.633V1.625h4.134c5.522,0,8.437,3.283,8.437,9.49,0,6.6-1.673,8.615-7.158,8.615Zm19.7,6.633-.028-.07a8.835,8.835,0,0,0-1.833-2.8l-.271-.271-.029-.027,5.32-14.628L81.2,26.363Z"/>
</svg>
