<svg xmlns="http://www.w3.org/2000/svg" width="145.778" height="54.528" viewBox="0 0 145.778 54.528">
  <g id="layer1" transform="translate(-7.752 34.461)">
    <path id="path838" d="M20.727,8.353c0,14.893,30.547,27.264,72.9,27.264S166.5,23.246,166.5,8.353,135.958-18.911,93.627-18.911,20.727-6.54,20.727,8.353Z" transform="translate(-12.974 -15.55)" fill="#ccc"/>
    <path id="path840" d="M127.444,58.981a4.05,4.05,0,0,0-.326,1.935v8.153s4.37-5.675,5.37-7.023a8.151,8.151,0,0,0,1.7-3.066h14.263a15.531,15.531,0,0,0-2.957,2.913c-.783.957-5.218,6.37-5.218,6.37s6.588,10.023,7.436,11.306a12.463,12.463,0,0,0,1.609,1.935H132.9a7.5,7.5,0,0,0-1.326-3.022c-.7-1.044-4.457-6.762-4.457-6.762V79.57a4.05,4.05,0,0,0,.326,1.935H113.769a4.05,4.05,0,0,0,.326-1.935V60.916a4.05,4.05,0,0,0-.326-1.935Zm50.636,0H151.686a4.05,4.05,0,0,1,.326,1.935V79.571a4.05,4.05,0,0,1-.326,1.935H178.08v-6.24a4.05,4.05,0,0,1-1.935.326h-11.11V72.635h10.675V67.874H165.035V64.895h11.11a4.308,4.308,0,0,1,1.935.3Zm36.57,20.589a5.443,5.443,0,0,0,1.065,1.935H201.409a4.177,4.177,0,0,0-.435-1.935s-.217-.522-.522-1.283l-.13-.326h-8.24l-.13.348s-.239.631-.457,1.283a4.38,4.38,0,0,0-.37,1.935H179.842a5.7,5.7,0,0,0,1.022-1.935l6.762-18.654A4.122,4.122,0,0,0,188.016,59h19.067a3.3,3.3,0,0,0,.413,1.935c.565,1.413,6.675,17.372,7.153,18.633M198.518,73.2l-2-5.218a11.528,11.528,0,0,1-.435-1.478,8.716,8.716,0,0,1-.391,1.478c-.065.217-.913,2.5-1.892,5.218ZM106.963,60.916a4.05,4.05,0,0,1,.326-1.935H92.418a4.05,4.05,0,0,1,.326,1.935V79.571a4.05,4.05,0,0,1-.326,1.935h14.871a4.05,4.05,0,0,1-.326-1.935Zm103.121-.152a2.969,2.969,0,0,0,5.935.152v-.152a2.9,2.9,0,0,0-2.848-2.957h-.109a2.837,2.837,0,0,0-2.957,2.761.212.212,0,0,0-.022.2m5.327,0a2.371,2.371,0,1,1-4.74.13v-.152a2.284,2.284,0,0,1,2.2-2.37h.174a2.329,2.329,0,0,1,2.37,2.283v.109m-.913,1.783h-.587l-.7-1.261h-.761v1.261h-.522V58.981h1.326a1.137,1.137,0,0,1,1.109,1.152,1.191,1.191,0,0,1-.631,1.044Zm-1.326-1.783a.6.6,0,0,0,.652-.587.614.614,0,0,0-.587-.652h-.783v1.261h.717" transform="translate(-71.36 -78.027)" fill="#dedede"/>
  </g>
</svg>
