<svg xmlns="http://www.w3.org/2000/svg" width="150.807" height="46.025" viewBox="0 0 150.807 46.025">
  <g id="avis-vector-logo" transform="translate(-0.001)">
    <path id="path14" d="M146.354,4.556v-1.2h.685c.4,0,.842.113.842.574,0,.509-.493.625-.935.625ZM145.6,6.925h.758V5.168h.553l.974,1.758h.918l-1.133-1.842a1.122,1.122,0,0,0,.972-1.136c0-.9-.777-1.233-1.582-1.233H145.6V6.925ZM143.9,4.837a3.156,3.156,0,1,1,3.143,3.158A3.15,3.15,0,0,1,143.9,4.837Zm-.593,0a3.748,3.748,0,1,0,3.735-3.727A3.7,3.7,0,0,0,143.312,4.837ZM88.844,44.911H99.483V1.11H88.844ZM84.606,1.11H72.916L62.771,32.762,52.443,1.11H40.566l16.578,43.8H67.723L84.606,1.11h0Zm-37.585,43.8L29.107,1.11H18.569L0,44.911H11.7l3.212-8.6H31.873l3.4,8.6ZM28.961,27.839H17.953l5.562-15.034,5.446,15.034Zm103.531-15.8a11.417,11.417,0,0,0-8.05-3.32c-2.722,0-6.126.931-6.126,4.4,0,2.9,2.6,3.888,6.748,5.193,5.938,1.918,13.608,4.4,13.608,13.118,0,10.082-8.1,14.6-16.764,14.6-6.25,0-12.562-2.287-16.395-6.31L112,33.059a13.874,13.874,0,0,0,9.909,4.244c3.214,0,6.062-1.242,6.062-4.764,0-3.341-3.344-4.458-9.1-6.322-5.563-1.792-11.194-4.569-11.194-12.483C107.68,4.02,116.464,0,124.626,0A21.928,21.928,0,0,1,138.98,5.378l-6.488,6.662" fill="#d4002a"/>
  </g>
</svg>
