<svg xmlns="http://www.w3.org/2000/svg" width="199.814" height="54.31" viewBox="0 0 199.814 54.31">
  <g id="Toys__R__Us_logo" transform="translate(-4.449 -1.846)">
    <path id="Path_2225" data-name="Path 2225" d="M107.725,55.011c4.408,1.865,6.45,1.535,9.924-1.613,1.611-1.46,4.525-5,8.117-10.7-.18,1.76-.443,4.286-.532,4.942-.27,1.993-.422,4.067,1,5.644a5.929,5.929,0,0,0,4.558,1.644h.183c.264-.015,6.348-.342,8.59-.647,3.858-.505,4.854-1.708,5.741-4.408l.2-.6a72.219,72.219,0,0,0,2.727-11.517,11.448,11.448,0,0,0,5.351,7.091c4.167,2.439,9.482,2.283,14.214-.416a16.769,16.769,0,0,0,5.016-4.418c.134.218.27.408.395.584l.108.147c1.589,2.26,6.713,6.669,14.733,7.249,2.826.207,8.138.043,11.927-3.364a13.221,13.221,0,0,0,4.05-6.84,9.82,9.82,0,0,0-1.376-7.614,15.75,15.75,0,0,0-3.682-3.744,5.831,5.831,0,0,0,1.392-.954c2.128-1.96,3.2-5.241,1.32-7.348-5.2-5.836-13.938-6.585-19.059-3.936a14.1,14.1,0,0,0-4.975,4.029,4.767,4.767,0,0,0-4.313-2.741,29.256,29.256,0,0,0-3.07.125,4.807,4.807,0,0,0-4.5,4.373,4.4,4.4,0,0,0-1.916-1.85,30.78,30.78,0,0,0-3.121-1.213c.012,0-1.251-.455-1.251-.455a.115.115,0,0,0,.045.015,5.319,5.319,0,0,0-6.719,2.074,28.481,28.481,0,0,0-3.047,6.088c.407-5.354.485-9.266.491-9.64,0,.042-.006.084-.006.123.245-3.783-1.162-6.073-4.861-7.919-12.21-6.076-23.7-6.175-30.383-4.242a18.506,18.506,0,0,0-13.325,14.157c-5.793-3.19-11.135-2.849-14.8-1.155a3.571,3.571,0,0,0-.644-2.424A4.662,4.662,0,0,0,82.511,11.9c-2.14-.107-4.036-.107-4.978-.107a3.662,3.662,0,0,1-.432-.009A4.829,4.829,0,0,0,72.278,14a.466.466,0,0,0-.034.057c-1.106,2.018-2.384,4.265-3.337,5.884l-4.729-5.953c-.029-.033-.067-.081-.1-.114l-.059-.069c-1.36-1.55-3.056-1.867-5.332-1-1.591.617-3.859,1.562-5.369,2.3a4.247,4.247,0,0,0-2.492,2.625,3.3,3.3,0,0,0-.1,1.122,15.863,15.863,0,0,0-4.39-1.257,16.387,16.387,0,0,0-7.15.58,18.5,18.5,0,0,0-1.094-5.495c-.009-.018-.036-.081-.058-.126-1.015-2.248-2.89-3.172-5.575-2.721-9.308,1.526-12.651,1.7-22.9,1.783-3.692.033-4.613,2.223-4.838,3.163A49.172,49.172,0,0,0,4.6,23.824c.583,3.744,4.156,3.678,5.329,3.652,1.746-.03,2.977-.107,3.963-.165.163-.006.313-.014.459-.024a109.536,109.536,0,0,0,2.8,16.845l.018.066a4.637,4.637,0,0,0,5.814,3.762c1.291-.266,5.8-1.484,7.482-2.115a3.883,3.883,0,0,0,2.6-3.586c0-.125,0-.257,0-.383a14.5,14.5,0,0,0,3.152,2.349,15.675,15.675,0,0,0,11.484,1.434A19.192,19.192,0,0,0,53.926,42.7a7.757,7.757,0,0,0,1.082,1.55c.7.808,4.413,4.893,8.124,5.39a4.719,4.719,0,0,0,2.845-.4l.085-.033c2.719-1.119,6.556-5.663,11.408-13.519.2-.33.407-.662.606-.994a7.358,7.358,0,0,0-.472,1.766,4.42,4.42,0,0,0,1.7,4.121c0-.009.29.248.29.248A20.012,20.012,0,0,0,92.8,46.324a16.753,16.753,0,0,0,5.723-.846,5.15,5.15,0,0,0,1.459,3.4.306.306,0,0,0,.048.057c.436.472,4.37,4.657,7.692,6.079" fill="#fff"/>
    <path id="Path_2226" data-name="Path 2226" d="M171.093,22.611h0" transform="translate(-51.896 -6.467)" fill="#fff"/>
    <path id="Path_2227" data-name="Path 2227" d="M187.907,10.841C177.037,5.43,166.3,4.855,159.621,6.789c-12.346,3.583-16.174,18.733-4.735,26.155.692.449.258,1.394-.611,2.906a25.825,25.825,0,0,1-6.572,8.237c-2.117,1.61-3.49,2.274-1.75,4.259,0,0,3.868,4.178,6.724,5.4,3.445,1.454,4.307,1.213,6.871-1.107,1.611-1.457,4.806-5.444,8.662-11.786,2-3.3,4.675-3.362,4.31,2.065,0,0-.527,5.223-.671,6.3-.431,3.113-.1,4.193,2.789,4.22,0,0,6.2-.335,8.357-.625,3.029-.4,2.864-.871,3.658-3.178,4.238-12.313,4.6-33.452,4.6-33.452.179-2.829-.748-4.045-3.344-5.341m-7.937,11.4s-3.848,2.55-3.945,2.616a1.871,1.871,0,0,0-.835,1.718c-.023.491-.174,3.972-.182,4.4-.009.481-.224,1.793-1.793.454,0,0-2.622-2.218-3.011-2.55a2.135,2.135,0,0,0-2.389-.47l-4.106,1.583s-2.473.973-1.551-1.17c.892-2.083,1.491-3.819,1.688-4.376a2.071,2.071,0,0,0-.368-1.976c-.231-.258-2.2-2.772-2.652-3.394,0,0-1.619-1.862,1.08-1.736,0,0,4.609.1,4.681.107a1.752,1.752,0,0,0,1.557-.874c.76-1.152,2.987-3.852,2.523-3.28.389-.47,1.293-1.649,1.892.3,0,0,.847,2.574,1.248,3.652.275.731.449,1.23,1.82,1.652l4.235,1.478s1.98.591.109,1.86" transform="translate(-43.822 -1.224)" fill="#0862ad"/>
    <path id="Path_2228" data-name="Path 2228" d="M67.153,34.3a12.267,12.267,0,0,0-8.907-5.713,12.774,12.774,0,0,0-12.157,4.95,10.938,10.938,0,0,0-1.781,9.248c1.983,7.8,9.921,9.978,14.889,8.559,5.606-1.6,8.741-4.774,9.593-9.673A10.763,10.763,0,0,0,67.153,34.3M53.5,44.837c-1.57-.506-2.737-2.921-2.17-5.543s2.473-4.445,4.247-3.9c1.575.488,2.734,3.053,2.186,5.681-.587,2.8-2.464,4.349-4.264,3.765" transform="translate(-12.303 -8.287)" fill="#f48120"/>
    <path id="Path_2229" data-name="Path 2229" d="M221.28,27.432a28.253,28.253,0,0,0-4.49,14,9.014,9.014,0,0,0,4.378,8.478c3.259,1.909,7.492,1.754,11.317-.434,8.216-4.7,9.138-16.521,8.907-21.857a1.967,1.967,0,0,0-2.062-2.029,24.936,24.936,0,0,0-2.7.111,2.073,2.073,0,0,0-1.966,2.209l-.012.347c-.054,4.956-.4,9.359-2.634,12.064-1.46,1.788-3.205,2.5-4.355,2.035a2.939,2.939,0,0,1-1.524-3.1,21.145,21.145,0,0,1,2.79-7.755l.392-.739a2.048,2.048,0,0,0-.662-2.838c-.545-.275-1.733-.7-2.783-1.075l-1.266-.455a2.512,2.512,0,0,0-3.331,1.03" transform="translate(-66.124 -7.394)" fill="#73bd45"/>
    <path id="Path_2230" data-name="Path 2230" d="M261.024,22.743c-3.568,1.844-5.4,4.361-5.776,7.922-.512,4.8,6.255,8.153,7.865,9,1.94,1.02,2.011,2.2,1.509,2.9-.793,1.1-2.99.787-4.609.156a9.582,9.582,0,0,1-4.145-3.145c-.859-.963-3.469,1.8-3.876,3.72-.188.879.167,1.3.722,2.082,1.421,2.011,5.995,5.588,12.624,6.07,1.829.134,6.588.24,9.8-2.649a10.479,10.479,0,0,0,3.205-5.4,7.175,7.175,0,0,0-.976-5.58c-1.8-2.672-4.812-4.441-8.153-5.962-4.872-2.218-3.932-3.529-2.843-4.133,1.023-.574,4.49-.171,7.207,2.323,1.376,1.263,4.232-2.658,3.047-3.992-4.339-4.863-11.708-5.321-15.6-3.313" transform="translate(-77.075 -6.159)" fill="#ea1a5b"/>
    <path id="Path_2231" data-name="Path 2231" d="M105.986,22.638c-2.716,8.5-14.3,27.924-18.827,29.786a2.065,2.065,0,0,1-1.434.248c-2.4-.335-5.4-3.34-6.36-4.45-.43-.491-1.354-1.622-.611-2.221,2.827-2.253,6.336-5.692,6.5-7.709A1.828,1.828,0,0,0,85,37.168c-.263-.35-7.607-10.027-8.346-11.056-1.25-1.769-1.244-2.185.142-2.858s3.589-1.6,5.133-2.2,1.783-.174,2.219.315l6.583,8.278a.855.855,0,0,0,1.25-.174c.841-.991,4.4-7.408,4.953-8.419.656-1.122,1.737-.814,2.825-.82,1.155-.009,2.942.006,4.813.1,1.8.094,1.963.6,1.418,2.309" transform="translate(-22.199 -5.716)" fill="#73bd45"/>
    <path id="Path_2232" data-name="Path 2232" d="M121.422,25.987c-2.963,1.844-4.372,4.16-4.44,7.279-.1,4.211,5.74,7,7.205,7.631,1.758.757,2.007,1.662,1.691,2.34-.459,1.012-1.507,1.2-2.737.949-2.231-.458-3.972-2.409-5.727-3.391-.994-.545-2.459,1.347-2.672,3.05a1.737,1.737,0,0,0,.781,1.75,17.455,17.455,0,0,0,11.747,5.056c1.6.069,5.747-.249,8.326-2.972a8.122,8.122,0,0,0,2.4-4.6A7.13,7.13,0,0,0,136.74,38.3c-.925-1.394-2.615-2.789-5.575-4.019-4.8-1.976-3.285-3.969-2.146-4.343.976-.323,2.684-.072,5.527,1.637,1.541.928,3.581-2.714,2.31-3.627-6.375-4.592-12.194-3.972-15.434-1.961" transform="translate(-34.342 -7.044)" fill="#ea1a5b"/>
    <path id="Path_2233" data-name="Path 2233" d="M10.854,19.137c10.423-.081,13.947-.282,23.35-1.825,2.119-.35,2.293.7,2.639,1.38a17.706,17.706,0,0,1,.8,4.256c-.039.748.335,1.843-.934,2.2-3.959,1.1-5,1.449-7.626,2.227-1.214.365-1.138.874-1.1,1.8A67.887,67.887,0,0,0,31.1,44.934c.512,1.6.741,2.747-.38,3.172-1.558.572-5.9,1.751-7.065,1.994-2.016.421-2.307-1.057-2.5-1.814a107.22,107.22,0,0,1-2.725-16.428c-.085-1.329-.521-2.574-1.77-2.541-1.286.024-2.722.182-5.518.233-1.495.033-2.287-.06-2.486-1.338A50.422,50.422,0,0,1,8.729,20.2c.222-.916,1.281-1.057,2.125-1.066" transform="translate(-1.271 -4.795)" fill="#ea1a5b"/>
    <path id="Path_2234" data-name="Path 2234" d="M292.661,25.3a2.052,2.052,0,1,1-2.053-1.976,2.018,2.018,0,0,1,2.053,1.976" transform="translate(-88.48 -6.689)" fill="#fff"/>
    <path id="Path_2235" data-name="Path 2235" d="M292.461,25.46a1.686,1.686,0,1,0-1.688,1.625,1.654,1.654,0,0,0,1.688-1.625" transform="translate(-88.645 -6.85)" fill="#0862ad"/>
    <path id="Path_2236" data-name="Path 2236" d="M292.348,25.545a1.48,1.48,0,1,1-1.482-1.431,1.461,1.461,0,0,1,1.482,1.431" transform="translate(-88.738 -6.935)" fill="#fff"/>
    <path id="Path_2237" data-name="Path 2237" d="M290.552,26.7V24.506h.688a.773.773,0,0,1,.5.14.469.469,0,0,1,.177.407.643.643,0,0,1-.458.622l.754,1.02h-.395l-.644-.925h-.3V26.7h-.323m.323-1.152h.1c.407,0,.6-.162.6-.467,0-.224-.168-.342-.5-.342h-.2Z" transform="translate(-89.1 -7.057)" fill="#0862ad"/>
  </g>
</svg>
